<svg width="23" height="26" viewBox="0 0 23 26" fill="none" xmlns="http://www.w3.org/2000/svg">
<path d="M11.4971 0.5C11.862 0.499289 12.2205 0.597956 12.5332 0.786133C12.846 0.974358 13.1013 1.24545 13.2715 1.56836C13.4414 1.89107 13.5196 2.25408 13.498 2.61816C13.4906 2.7433 13.4698 2.86675 13.4395 2.9873C15.0698 3.39491 16.5366 4.30473 17.625 5.59766C18.8392 7.04015 19.5055 8.86482 19.5059 10.75C19.5059 13.2452 19.8264 14.7658 20.2471 15.7725C20.6624 16.7663 21.1877 17.2944 21.6992 17.8057L21.7002 17.8076C22.0827 18.1928 22.3433 18.6823 22.4482 19.2148C22.5532 19.7474 22.4979 20.2993 22.29 20.8008C22.0822 21.3021 21.731 21.7309 21.2803 22.0332C20.8294 22.3355 20.2987 22.498 19.7559 22.5H14.9668C14.9252 22.7877 14.8481 23.0701 14.7363 23.3398C14.5604 23.7642 14.3025 24.1498 13.9775 24.4746C13.6524 24.7996 13.2656 25.0575 12.8408 25.2334C12.4161 25.4092 11.9607 25.5 11.501 25.5C11.0412 25.5 10.5859 25.4092 10.1611 25.2334C9.73637 25.0575 9.35053 24.7996 9.02539 24.4746C8.7003 24.1497 8.44161 23.7644 8.26562 23.3398C8.15384 23.0701 8.0767 22.7877 8.03516 22.5H3.24609C2.70289 22.4986 2.17203 22.3364 1.7207 22.0342C1.26957 21.732 0.917951 21.3032 0.709961 20.8018C0.501999 20.3001 0.446566 19.7476 0.551758 19.2148C0.657011 18.682 0.917651 18.1917 1.30078 17.8066L1.30273 17.8057C1.8156 17.2936 2.34099 16.7657 2.75586 15.7725C3.17617 14.7661 3.49609 13.2455 3.49609 10.75C3.49628 7.01053 6.06112 3.87635 9.5625 2.99121C9.53233 2.87222 9.51176 2.75049 9.50391 2.62695C9.48081 2.26277 9.55779 1.89874 9.72656 1.5752C9.89539 1.25165 10.15 0.980503 10.4619 0.791016C10.7739 0.601525 11.132 0.500739 11.4971 0.5Z" stroke="white"/>
<rect x="15.0078" y="3" width="5.00285" height="5.00285" rx="2.50143" fill="#FF0000"/>
</svg>
