<svg width="21" height="24" viewBox="0 0 21 24" fill="none" xmlns="http://www.w3.org/2000/svg">
<rect width="21" height="24" transform="translate(0 0.000976562)" fill="white"/>
<path d="M20.3478 17.1597C19.3072 16.1197 18.0074 14.8186 18.0074 9.75041C18.0072 7.98291 17.3828 6.27222 16.2443 4.91973C15.1058 3.56724 13.5262 2.65973 11.7839 2.3571L11.7389 2.3511C11.8942 2.1257 11.9849 1.86211 12.0011 1.58888C12.0174 1.31565 11.9585 1.04319 11.8308 0.801015C11.7032 0.55884 11.5117 0.356181 11.2771 0.214988C11.0425 0.073794 10.7737 -0.000551664 10.4999 3.08193e-06C10.226 0.000557828 9.95754 0.0759918 9.7235 0.218135C9.48947 0.360278 9.29881 0.563711 9.17217 0.806401C9.04554 1.04909 8.98775 1.32179 9.00507 1.59495C9.02239 1.86811 9.11417 2.13133 9.27045 2.3561L9.26745 2.3511C5.68741 2.96513 2.99787 6.04325 2.99787 9.75041C2.99787 14.8186 1.70113 16.1177 0.657538 17.1597C0.344002 17.4748 0.130748 17.8756 0.044626 18.3116C-0.0414963 18.7476 0.00336286 19.1993 0.173556 19.6098C0.343749 20.0204 0.631667 20.3714 1.00106 20.6188C1.37046 20.8661 1.80481 20.9987 2.24945 20.9999H7.50144C7.50144 21.3939 7.57908 21.784 7.72993 22.148C7.88078 22.512 8.10189 22.8427 8.38062 23.1213C8.65936 23.3999 8.99026 23.6209 9.35445 23.7716C9.71863 23.9224 10.109 24 10.5032 24C10.8973 24 11.2877 23.9224 11.6519 23.7716C12.016 23.6209 12.3469 23.3999 12.6257 23.1213C12.9044 22.8427 13.1255 22.512 13.2764 22.148C13.4272 21.784 13.5049 21.3939 13.5049 20.9999H18.7559C19.2003 20.9983 19.6343 20.8654 20.0034 20.618C20.3725 20.3705 20.6602 20.0196 20.8303 19.6092C21.0004 19.1989 21.0453 18.7474 20.9595 18.3116C20.8736 17.8757 20.6608 17.475 20.3478 17.1597ZM10.5022 22.1249C10.6017 22.1249 10.6971 22.1644 10.7675 22.2348C10.8378 22.3051 10.8774 22.4005 10.8774 22.4999C10.8774 22.5994 10.8378 22.6948 10.7675 22.7651C10.6971 22.8354 10.6017 22.875 10.5022 22.875C10.0047 22.8744 9.52787 22.6767 9.17615 22.3252C8.82444 21.9736 8.62661 21.497 8.62608 20.9999H9.37651C9.37704 21.2983 9.49594 21.5843 9.70714 21.7952C9.91834 22.0061 10.2046 22.1247 10.5032 22.1249H10.5022Z" fill="#0F0F0F"/>
<path d="M10.5022 22.1249C10.6017 22.1249 10.6971 22.1644 10.7675 22.2348C10.8378 22.3051 10.8774 22.4005 10.8774 22.4999C10.8774 22.5994 10.8378 22.6948 10.7675 22.7651C10.6971 22.8354 10.6017 22.875 10.5022 22.875C10.0047 22.8744 9.52787 22.6767 9.17615 22.3252C8.82444 21.9736 8.62661 21.497 8.62608 20.9999H9.37651C9.37704 21.2983 9.49594 21.5843 9.70714 21.7952C9.91834 22.0061 10.2046 22.1247 10.5032 22.1249H10.5022Z" fill="#0F0F0F"/>
<rect x="14.0098" y="2" width="5.00285" height="5.00285" rx="2.50143" fill="#FF0000"/>
</svg>
