<svg width="390" height="461" viewBox="0 0 390 461" fill="none" xmlns="http://www.w3.org/2000/svg">
<g filter="url(#filter0_d_714_23)">
<path d="M71.8203 103L70.4523 94.6H71.4603L72.6483 102.352H72.8163L74.3643 94.6H76.1643L77.7003 102.352H77.8683L79.0563 94.6H80.0643L78.6963 103H76.8963L75.3483 95.2H75.1803L73.6323 103H71.8203ZM84.5043 103.168C83.8963 103.168 83.3523 103.06 82.8723 102.844C82.3923 102.628 82.0123 102.304 81.7323 101.872C81.4603 101.432 81.3243 100.884 81.3243 100.228V99.976H82.3203V100.228C82.3203 100.924 82.5243 101.444 82.9323 101.788C83.3403 102.124 83.8643 102.292 84.5043 102.292C85.1603 102.292 85.6603 102.144 86.0043 101.848C86.3483 101.552 86.5203 101.18 86.5203 100.732C86.5203 100.42 86.4403 100.172 86.2803 99.988C86.1283 99.804 85.9123 99.656 85.6323 99.544C85.3523 99.424 85.0243 99.32 84.6483 99.232L84.0243 99.076C83.5363 98.948 83.1043 98.792 82.7283 98.608C82.3523 98.424 82.0563 98.184 81.8403 97.888C81.6323 97.584 81.5283 97.196 81.5283 96.724C81.5283 96.252 81.6443 95.844 81.8763 95.5C82.1163 95.156 82.4483 94.892 82.8723 94.708C83.3043 94.524 83.8003 94.432 84.3603 94.432C84.9283 94.432 85.4363 94.532 85.8843 94.732C86.3403 94.924 86.6963 95.212 86.9523 95.596C87.2163 95.972 87.3483 96.448 87.3483 97.024V97.528H86.3523V97.024C86.3523 96.616 86.2643 96.288 86.0883 96.04C85.9203 95.792 85.6843 95.608 85.3803 95.488C85.0843 95.368 84.7443 95.308 84.3603 95.308C83.8083 95.308 83.3643 95.432 83.0283 95.68C82.6923 95.92 82.5243 96.264 82.5243 96.712C82.5243 97.008 82.5963 97.248 82.7403 97.432C82.8843 97.616 83.0883 97.768 83.3523 97.888C83.6163 98 83.9323 98.1 84.3003 98.188L84.9243 98.344C85.4123 98.448 85.8483 98.592 86.2323 98.776C86.6243 98.952 86.9363 99.196 87.1683 99.508C87.4003 99.812 87.5163 100.212 87.5163 100.708C87.5163 101.204 87.3923 101.636 87.1443 102.004C86.8963 102.372 86.5443 102.66 86.0883 102.868C85.6403 103.068 85.1123 103.168 84.5043 103.168ZM89.2957 100.348V99.472H92.8477V100.348H89.2957ZM97.8886 103.168C96.9366 103.168 96.1766 102.888 95.6086 102.328C95.0486 101.76 94.7686 100.912 94.7686 99.784V97.816C94.7686 96.696 95.0486 95.852 95.6086 95.284C96.1766 94.716 96.9366 94.432 97.8886 94.432C98.8486 94.432 99.6086 94.716 100.169 95.284C100.737 95.852 101.021 96.696 101.021 97.816V99.784C101.021 100.912 100.737 101.76 100.169 102.328C99.6086 102.888 98.8486 103.168 97.8886 103.168ZM97.8886 102.292C98.6086 102.292 99.1486 102.076 99.5086 101.644C99.8686 101.212 100.049 100.608 100.049 99.832V97.756C100.049 96.98 99.8646 96.38 99.4966 95.956C99.1286 95.524 98.5926 95.308 97.8886 95.308C97.1846 95.308 96.6486 95.524 96.2806 95.956C95.9206 96.388 95.7406 96.988 95.7406 97.756V99.832C95.7406 100.616 95.9206 101.224 96.2806 101.656C96.6406 102.08 97.1766 102.292 97.8886 102.292ZM105.06 103V95.248H104.88L103.248 98.236H102.192L104.196 94.6H106.032V103H105.06Z" fill="#0F0F0F"/>
<path d="M332.078 161L330.71 152.6H331.718L332.906 160.352H333.074L334.622 152.6H336.422L337.958 160.352H338.126L339.314 152.6H340.322L338.954 161H337.154L335.606 153.2H335.438L333.89 161H332.078ZM344.762 161.168C344.154 161.168 343.61 161.06 343.13 160.844C342.65 160.628 342.27 160.304 341.99 159.872C341.718 159.432 341.582 158.884 341.582 158.228V157.976H342.578V158.228C342.578 158.924 342.782 159.444 343.19 159.788C343.598 160.124 344.122 160.292 344.762 160.292C345.418 160.292 345.918 160.144 346.262 159.848C346.606 159.552 346.778 159.18 346.778 158.732C346.778 158.42 346.698 158.172 346.538 157.988C346.386 157.804 346.17 157.656 345.89 157.544C345.61 157.424 345.282 157.32 344.906 157.232L344.282 157.076C343.794 156.948 343.362 156.792 342.986 156.608C342.61 156.424 342.314 156.184 342.098 155.888C341.89 155.584 341.786 155.196 341.786 154.724C341.786 154.252 341.902 153.844 342.134 153.5C342.374 153.156 342.706 152.892 343.13 152.708C343.562 152.524 344.058 152.432 344.618 152.432C345.186 152.432 345.694 152.532 346.142 152.732C346.598 152.924 346.954 153.212 347.21 153.596C347.474 153.972 347.606 154.448 347.606 155.024V155.528H346.61V155.024C346.61 154.616 346.522 154.288 346.346 154.04C346.178 153.792 345.942 153.608 345.638 153.488C345.342 153.368 345.002 153.308 344.618 153.308C344.066 153.308 343.622 153.432 343.286 153.68C342.95 153.92 342.782 154.264 342.782 154.712C342.782 155.008 342.854 155.248 342.998 155.432C343.142 155.616 343.346 155.768 343.61 155.888C343.874 156 344.19 156.1 344.558 156.188L345.182 156.344C345.67 156.448 346.106 156.592 346.49 156.776C346.882 156.952 347.194 157.196 347.426 157.508C347.658 157.812 347.774 158.212 347.774 158.708C347.774 159.204 347.65 159.636 347.402 160.004C347.154 160.372 346.802 160.66 346.346 160.868C345.898 161.068 345.37 161.168 344.762 161.168ZM349.553 158.348V157.472H353.105V158.348H349.553ZM358.146 161.168C357.194 161.168 356.434 160.888 355.866 160.328C355.306 159.76 355.026 158.912 355.026 157.784V155.816C355.026 154.696 355.306 153.852 355.866 153.284C356.434 152.716 357.194 152.432 358.146 152.432C359.106 152.432 359.866 152.716 360.426 153.284C360.994 153.852 361.278 154.696 361.278 155.816V157.784C361.278 158.912 360.994 159.76 360.426 160.328C359.866 160.888 359.106 161.168 358.146 161.168ZM358.146 160.292C358.866 160.292 359.406 160.076 359.766 159.644C360.126 159.212 360.306 158.608 360.306 157.832V155.756C360.306 154.98 360.122 154.38 359.754 153.956C359.386 153.524 358.85 153.308 358.146 153.308C357.442 153.308 356.906 153.524 356.538 153.956C356.178 154.388 355.998 154.988 355.998 155.756V157.832C355.998 158.616 356.178 159.224 356.538 159.656C356.898 160.08 357.434 160.292 358.146 160.292ZM366.998 161V159.284H362.618V158.132L366.146 152.6H367.97V158.408H369.41V159.284H367.97V161H366.998ZM363.59 158.408H366.998V153.188H366.83L363.59 158.264V158.408Z" fill="#0F0F0F"/>
<path d="M42.2129 377L40.8449 368.6H41.8529L43.0409 376.352H43.2089L44.7569 368.6H46.5569L48.0929 376.352H48.2609L49.4489 368.6H50.4569L49.0889 377H47.2889L45.7409 369.2H45.5729L44.0249 377H42.2129ZM54.8969 377.168C54.2889 377.168 53.7449 377.06 53.2649 376.844C52.7849 376.628 52.4049 376.304 52.1249 375.872C51.8529 375.432 51.7169 374.884 51.7169 374.228V373.976H52.7129V374.228C52.7129 374.924 52.9169 375.444 53.3249 375.788C53.7329 376.124 54.2569 376.292 54.8969 376.292C55.5529 376.292 56.0529 376.144 56.3969 375.848C56.7409 375.552 56.9129 375.18 56.9129 374.732C56.9129 374.42 56.8329 374.172 56.6729 373.988C56.5209 373.804 56.3049 373.656 56.0249 373.544C55.7449 373.424 55.4169 373.32 55.0409 373.232L54.4169 373.076C53.9289 372.948 53.4969 372.792 53.1209 372.608C52.7449 372.424 52.4489 372.184 52.2329 371.888C52.0249 371.584 51.9209 371.196 51.9209 370.724C51.9209 370.252 52.0369 369.844 52.2689 369.5C52.5089 369.156 52.8409 368.892 53.2649 368.708C53.6969 368.524 54.1929 368.432 54.7529 368.432C55.3209 368.432 55.8289 368.532 56.2769 368.732C56.7329 368.924 57.0889 369.212 57.3449 369.596C57.6089 369.972 57.7409 370.448 57.7409 371.024V371.528H56.7449V371.024C56.7449 370.616 56.6569 370.288 56.4809 370.04C56.3129 369.792 56.0769 369.608 55.7729 369.488C55.4769 369.368 55.1369 369.308 54.7529 369.308C54.2009 369.308 53.7569 369.432 53.4209 369.68C53.0849 369.92 52.9169 370.264 52.9169 370.712C52.9169 371.008 52.9889 371.248 53.1329 371.432C53.2769 371.616 53.4809 371.768 53.7449 371.888C54.0089 372 54.3249 372.1 54.6929 372.188L55.3169 372.344C55.8049 372.448 56.2409 372.592 56.6249 372.776C57.0169 372.952 57.3289 373.196 57.5609 373.508C57.7929 373.812 57.9089 374.212 57.9089 374.708C57.9089 375.204 57.7849 375.636 57.5369 376.004C57.2889 376.372 56.9369 376.66 56.4809 376.868C56.0329 377.068 55.5049 377.168 54.8969 377.168ZM59.6882 374.348V373.472H63.2402V374.348H59.6882ZM68.2812 377.168C67.3292 377.168 66.5692 376.888 66.0012 376.328C65.4412 375.76 65.1612 374.912 65.1612 373.784V371.816C65.1612 370.696 65.4412 369.852 66.0012 369.284C66.5692 368.716 67.3292 368.432 68.2812 368.432C69.2412 368.432 70.0012 368.716 70.5612 369.284C71.1292 369.852 71.4132 370.696 71.4132 371.816V373.784C71.4132 374.912 71.1292 375.76 70.5612 376.328C70.0012 376.888 69.2412 377.168 68.2812 377.168ZM68.2812 376.292C69.0012 376.292 69.5412 376.076 69.9012 375.644C70.2612 375.212 70.4412 374.608 70.4412 373.832V371.756C70.4412 370.98 70.2572 370.38 69.8892 369.956C69.5212 369.524 68.9852 369.308 68.2812 369.308C67.5772 369.308 67.0412 369.524 66.6732 369.956C66.3132 370.388 66.1332 370.988 66.1332 371.756V373.832C66.1332 374.616 66.3132 375.224 66.6732 375.656C67.0332 376.08 67.5692 376.292 68.2812 376.292ZM73.0047 377V376.124C73.0047 375.524 73.1087 375.044 73.3167 374.684C73.5327 374.324 73.8287 374.036 74.2047 373.82C74.5887 373.596 75.0447 373.404 75.5727 373.244L76.2327 373.04C76.5927 372.928 76.9087 372.792 77.1807 372.632C77.4527 372.464 77.6647 372.256 77.8167 372.008C77.9687 371.752 78.0447 371.44 78.0447 371.072V371.024C78.0447 370.496 77.8607 370.08 77.4927 369.776C77.1247 369.464 76.6527 369.308 76.0767 369.308C75.4687 369.308 74.9727 369.472 74.5887 369.8C74.2047 370.12 74.0127 370.608 74.0127 371.264V371.432H73.0527V371.276C73.0527 370.668 73.1847 370.152 73.4487 369.728C73.7127 369.304 74.0727 368.984 74.5287 368.768C74.9847 368.544 75.5007 368.432 76.0767 368.432C76.6527 368.432 77.1607 368.54 77.6007 368.756C78.0487 368.972 78.3967 369.272 78.6447 369.656C78.8927 370.04 79.0167 370.488 79.0167 371V371.108C79.0167 371.652 78.9087 372.104 78.6927 372.464C78.4767 372.816 78.1767 373.104 77.7927 373.328C77.4167 373.552 76.9727 373.744 76.4607 373.904L75.8127 374.108C75.4047 374.236 75.0647 374.372 74.7927 374.516C74.5287 374.652 74.3287 374.828 74.1927 375.044C74.0567 375.26 73.9887 375.552 73.9887 375.92V376.124H78.9447V377H73.0047Z" fill="#0F0F0F"/>
<path d="M312.207 377L310.839 368.6H311.847L313.035 376.352H313.203L314.751 368.6H316.551L318.087 376.352H318.255L319.443 368.6H320.451L319.083 377H317.283L315.735 369.2H315.567L314.019 377H312.207ZM324.891 377.168C324.283 377.168 323.739 377.06 323.259 376.844C322.779 376.628 322.399 376.304 322.119 375.872C321.847 375.432 321.711 374.884 321.711 374.228V373.976H322.707V374.228C322.707 374.924 322.911 375.444 323.319 375.788C323.727 376.124 324.251 376.292 324.891 376.292C325.547 376.292 326.047 376.144 326.391 375.848C326.735 375.552 326.907 375.18 326.907 374.732C326.907 374.42 326.827 374.172 326.667 373.988C326.515 373.804 326.299 373.656 326.019 373.544C325.739 373.424 325.411 373.32 325.035 373.232L324.411 373.076C323.923 372.948 323.491 372.792 323.115 372.608C322.739 372.424 322.443 372.184 322.227 371.888C322.019 371.584 321.915 371.196 321.915 370.724C321.915 370.252 322.031 369.844 322.263 369.5C322.503 369.156 322.835 368.892 323.259 368.708C323.691 368.524 324.187 368.432 324.747 368.432C325.315 368.432 325.823 368.532 326.271 368.732C326.727 368.924 327.083 369.212 327.339 369.596C327.603 369.972 327.735 370.448 327.735 371.024V371.528H326.739V371.024C326.739 370.616 326.651 370.288 326.475 370.04C326.307 369.792 326.071 369.608 325.767 369.488C325.471 369.368 325.131 369.308 324.747 369.308C324.195 369.308 323.751 369.432 323.415 369.68C323.079 369.92 322.911 370.264 322.911 370.712C322.911 371.008 322.983 371.248 323.127 371.432C323.271 371.616 323.475 371.768 323.739 371.888C324.003 372 324.319 372.1 324.687 372.188L325.311 372.344C325.799 372.448 326.235 372.592 326.619 372.776C327.011 372.952 327.323 373.196 327.555 373.508C327.787 373.812 327.903 374.212 327.903 374.708C327.903 375.204 327.779 375.636 327.531 376.004C327.283 376.372 326.931 376.66 326.475 376.868C326.027 377.068 325.499 377.168 324.891 377.168ZM329.682 374.348V373.472H333.234V374.348H329.682ZM338.275 377.168C337.323 377.168 336.563 376.888 335.995 376.328C335.435 375.76 335.155 374.912 335.155 373.784V371.816C335.155 370.696 335.435 369.852 335.995 369.284C336.563 368.716 337.323 368.432 338.275 368.432C339.235 368.432 339.995 368.716 340.555 369.284C341.123 369.852 341.407 370.696 341.407 371.816V373.784C341.407 374.912 341.123 375.76 340.555 376.328C339.995 376.888 339.235 377.168 338.275 377.168ZM338.275 376.292C338.995 376.292 339.535 376.076 339.895 375.644C340.255 375.212 340.435 374.608 340.435 373.832V371.756C340.435 370.98 340.251 370.38 339.883 369.956C339.515 369.524 338.979 369.308 338.275 369.308C337.571 369.308 337.035 369.524 336.667 369.956C336.307 370.388 336.127 370.988 336.127 371.756V373.832C336.127 374.616 336.307 375.224 336.667 375.656C337.027 376.08 337.563 376.292 338.275 376.292ZM345.999 377.168C345.407 377.168 344.875 377.056 344.403 376.832C343.939 376.608 343.571 376.284 343.299 375.86C343.035 375.436 342.903 374.924 342.903 374.324V374.096H343.875V374.312C343.875 374.928 344.071 375.412 344.463 375.764C344.855 376.116 345.367 376.292 345.999 376.292C346.639 376.292 347.135 376.128 347.487 375.8C347.847 375.464 348.027 375.044 348.027 374.54V374.444C348.027 374.076 347.939 373.78 347.763 373.556C347.587 373.324 347.347 373.156 347.043 373.052C346.747 372.94 346.419 372.884 346.059 372.884H344.691V371.672L347.895 369.62V369.476H343.107V368.6H348.927V369.956L345.795 371.972V372.116H346.395C346.867 372.116 347.299 372.204 347.691 372.38C348.091 372.548 348.407 372.804 348.639 373.148C348.879 373.484 348.999 373.908 348.999 374.42V374.552C348.999 375.08 348.875 375.54 348.627 375.932C348.379 376.324 348.031 376.628 347.583 376.844C347.135 377.06 346.607 377.168 345.999 377.168Z" fill="#0F0F0F"/>
<path d="M335 241C340.523 241 345.035 245.483 344.667 250.993C342.774 279.35 332.855 306.662 315.97 329.692C299.085 352.722 276.022 370.396 249.548 380.73C244.403 382.739 238.771 379.784 237.109 374.517L229.59 350.675C227.929 345.408 230.877 339.835 235.962 337.681C253.329 330.323 268.454 318.394 279.679 303.084C290.904 287.774 297.731 269.761 299.524 250.985C300.049 245.487 304.477 241 310 241H335Z" fill="#FF631C"/>
<path d="M232.66 378.658C234.303 383.931 231.366 389.572 225.996 390.861C198.221 397.525 169.045 396.135 141.923 386.744C111.644 376.261 85.5173 356.356 67.371 329.946C49.2248 303.537 40.0125 272.01 41.0839 239.985C42.0434 211.3 51.2082 183.565 67.3887 160.028C70.5174 155.477 76.8367 154.758 81.1694 158.183L100.782 173.686C105.115 177.111 105.806 183.377 102.808 188.016C92.5179 203.941 86.6968 222.415 86.0587 241.489C85.3088 263.907 91.7573 285.976 104.46 304.462C117.162 322.949 135.451 336.882 156.646 344.221C174.681 350.465 194.014 351.656 212.57 347.761C217.975 346.626 223.577 349.518 225.22 354.791L232.66 378.658Z" fill="#3D3D3D"/>
<path d="M85.0146 154.379C80.6758 150.962 79.9044 144.649 83.603 140.547C95.3098 127.565 109.214 116.709 124.702 108.493C143.139 98.7114 163.414 92.8854 184.232 91.387C205.049 89.8887 225.949 92.7511 245.597 99.7912C262.102 105.705 277.418 114.458 290.863 125.63C295.111 129.159 295.252 135.518 291.447 139.521L274.224 157.642C270.419 161.645 264.117 161.764 259.77 158.357C250.934 151.432 241.027 145.955 230.418 142.154C216.665 137.226 202.034 135.222 187.462 136.271C172.89 137.32 158.697 141.398 145.791 148.245C135.836 153.526 126.816 160.365 119.063 168.484C115.249 172.478 108.994 173.264 104.655 169.847L85.0146 154.379Z" fill="#0F0F0F"/>
<mask id="path-8-inside-1_714_23" fill="white">
<path d="M295.408 143.438C299.369 139.59 305.728 139.66 309.305 143.869C328.858 166.877 341.014 195.262 344.175 225.291C344.754 230.783 340.416 235.435 334.898 235.646L309.916 236.602C304.397 236.814 299.801 232.499 299.066 227.025C296.525 208.1 288.867 190.219 276.923 175.322C273.468 171.013 273.517 164.709 277.478 160.86L295.408 143.438Z"/>
</mask>
<path d="M295.408 143.438C299.369 139.59 305.728 139.66 309.305 143.869C328.858 166.877 341.014 195.262 344.175 225.291C344.754 230.783 340.416 235.435 334.898 235.646L309.916 236.602C304.397 236.814 299.801 232.499 299.066 227.025C296.525 208.1 288.867 190.219 276.923 175.322C273.468 171.013 273.517 164.709 277.478 160.86L295.408 143.438Z" stroke="#0F0F0F" stroke-width="2" mask="url(#path-8-inside-1_714_23)"/>
</g>
<defs>
<filter id="filter0_d_714_23" x="-4" y="0" width="398" height="469" filterUnits="userSpaceOnUse" color-interpolation-filters="sRGB">
<feFlood flood-opacity="0" result="BackgroundImageFix"/>
<feColorMatrix in="SourceAlpha" type="matrix" values="0 0 0 0 0 0 0 0 0 0 0 0 0 0 0 0 0 0 127 0" result="hardAlpha"/>
<feOffset dy="4"/>
<feGaussianBlur stdDeviation="2"/>
<feComposite in2="hardAlpha" operator="out"/>
<feColorMatrix type="matrix" values="0 0 0 0 0 0 0 0 0 0 0 0 0 0 0 0 0 0 0.25 0"/>
<feBlend mode="normal" in2="BackgroundImageFix" result="effect1_dropShadow_714_23"/>
<feBlend mode="normal" in="SourceGraphic" in2="effect1_dropShadow_714_23" result="shape"/>
</filter>
</defs>
</svg>
