<svg width="32" height="24" viewBox="0 0 32 24" fill="none" xmlns="http://www.w3.org/2000/svg">
<path d="M8.84854 23V20.5556C8.84854 19.2589 9.37079 18.0154 10.3004 17.0986C11.23 16.1817 12.4908 15.6667 13.8055 15.6667H18.7625C19.9521 15.6667 21.0427 16.0798 21.8978 16.7679M23.5645 10.7778C24.8792 10.7778 26.14 10.2627 27.0697 9.34586C27.9993 8.42901 28.5215 7.1855 28.5215 5.88889C28.5215 4.59228 27.9993 3.34877 27.0697 2.43192C26.14 1.51508 24.8792 1 23.5645 1M31 23V20.5556C31 19.2589 30.4777 18.0154 29.5481 17.0986C28.6185 16.1817 27.3577 15.6667 26.043 15.6667M23.5645 23V20.5556C23.5645 19.2589 23.0423 18.0154 22.1127 17.0986C21.1831 16.1817 19.9222 15.6667 18.6076 15.6667M8.43546 10.7778C7.12079 10.7778 5.85996 10.2627 4.93035 9.34586C4.00074 8.42901 3.47849 7.1855 3.47849 5.88889C3.47849 4.59228 4.00074 3.34877 4.93035 2.43192C5.85996 1.51508 7.12079 1 8.43546 1M1 23V20.5556C1 19.2589 1.52225 18.0154 2.45186 17.0986C3.38148 16.1817 4.6423 15.6667 5.95697 15.6667M11.327 5.88889C11.327 7.1855 11.8493 8.42901 12.7789 9.34586C13.7085 10.2627 14.9693 10.7778 16.284 10.7778C17.5987 10.7778 18.8595 10.2627 19.7891 9.34586C20.7187 8.42901 21.241 7.1855 21.241 5.88889C21.241 4.59228 20.7187 3.34877 19.7891 2.43192C18.8595 1.51508 17.5987 1 16.284 1C14.9693 1 13.7085 1.51508 12.7789 2.43192C11.8493 3.34877 11.327 4.59228 11.327 5.88889Z" stroke="#0F0F0F" stroke-width="2" stroke-linecap="round" stroke-linejoin="round"/>
</svg>
