<svg width="50" height="50" viewBox="0 0 50 50" fill="none" xmlns="http://www.w3.org/2000/svg">
<rect width="50" height="50" rx="25" fill="#3D3D3D" fill-opacity="0.1"/>
<path d="M13 35.7368V33.2105C13 31.8705 13.5323 30.5853 14.4799 29.6378C15.4274 28.6902 16.7126 28.1579 18.0526 28.1579H23.1053C24.3179 28.1579 25.4295 28.5848 26.3011 29.296M29.4211 13.1642C30.5079 13.4425 31.4712 14.0746 32.1591 14.9608C32.847 15.8471 33.2204 16.937 33.2204 18.0589C33.2204 19.1808 32.847 20.2708 32.1591 21.1571C31.4712 22.0433 30.5079 22.6754 29.4211 22.9537M29.4211 33.2105H37M33.2105 29.4211V37M15.5263 18.0526C15.5263 19.3927 16.0586 20.6778 17.0062 21.6254C17.9537 22.5729 19.2389 23.1053 20.5789 23.1053C21.919 23.1053 23.2041 22.5729 24.1517 21.6254C25.0992 20.6778 25.6316 19.3927 25.6316 18.0526C25.6316 16.7126 25.0992 15.4274 24.1517 14.4799C23.2041 13.5323 21.919 13 20.5789 13C19.2389 13 17.9537 13.5323 17.0062 14.4799C16.0586 15.4274 15.5263 16.7126 15.5263 18.0526Z" stroke="#0F0F0F" stroke-width="2" stroke-linecap="round" stroke-linejoin="round"/>
</svg>
