<svg width="22" height="24" viewBox="0 0 22 24" fill="none" xmlns="http://www.w3.org/2000/svg">
<path d="M10.9951 1C11.3503 1 11.6485 1.09915 11.9219 1.30273V1.30371L20.3838 7.66309L20.3906 7.66797L20.3965 7.67285C20.5819 7.80773 20.727 7.97679 20.8359 8.19434L20.8369 8.19727C20.9465 8.41428 21 8.63826 21 8.88086V22.4404C20.9999 22.5758 20.9609 22.6895 20.8252 22.8242C20.6895 22.9588 20.5719 23 20.4287 23H15.1113C15.0005 23 14.9559 22.9738 14.9111 22.9297H14.9121C14.8654 22.8831 14.8408 22.8419 14.8408 22.7393V15.2998C14.8408 14.6891 14.6214 14.1308 14.1807 13.6934C13.7402 13.2562 13.1813 13.04 12.5713 13.04H9.42871C8.81989 13.04 8.2619 13.2556 7.82227 13.6924C7.38006 14.1295 7.15925 14.6878 7.15918 15.2998V22.7412C7.15916 22.8437 7.13515 22.8837 7.08984 22.9287C7.04417 22.974 7.00036 23 6.89062 23H1.57129C1.42807 23 1.31052 22.9588 1.1748 22.8242C1.03909 22.6895 1.00007 22.5758 1 22.4404V8.88086C1 8.63826 1.05346 8.41428 1.16309 8.19727C1.27339 7.97904 1.41876 7.80839 1.60449 7.67285L1.61621 7.66504L10.0781 1.30273L10.0811 1.30078C10.3461 1.09989 10.6391 1.00003 10.9951 1Z" stroke="#0F0F0F" stroke-width="2"/>
</svg>
