<svg width="158" height="177" viewBox="0 0 158 177" fill="none" xmlns="http://www.w3.org/2000/svg">
<path d="M22.375 141.389L3.5 131V107.389M3.5 69.6111V46M3.5 46L22.375 35.6111M3.5 46L22.375 56.3889M60.125 13.8889L79 3.5L97.875 13.8889M135.625 35.6111L154.5 46M154.5 46V69.6111M154.5 46L135.625 56.3889M154.5 107.389V131L135.625 141.578M97.875 163.111L79 173.5M79 173.5L60.125 163.111M79 173.5V149.889M79 88.5L97.875 78.1111M79 88.5V112.111M79 88.5L60.125 77.9222" stroke="#FF631C" stroke-width="7" stroke-linecap="round" stroke-linejoin="round"/>
</svg>
