<svg width="26" height="26" viewBox="0 0 26 26" fill="none" xmlns="http://www.w3.org/2000/svg">
<path d="M12.75 24.75L23.5913 19.1393C24.0127 18.9207 24.2233 18.8127 24.3767 18.6513C24.5125 18.5098 24.6154 18.3399 24.678 18.154C24.75 17.942 24.75 17.706 24.75 17.2313V6.79402M12.75 24.75L1.90867 19.1393C1.48733 18.9207 1.27667 18.8127 1.12333 18.6513C0.987522 18.5098 0.884631 18.3399 0.822 18.154C0.75 17.942 0.75 17.7047 0.75 17.2287V6.79402M12.75 24.75V12.666M24.75 6.79402L12.75 12.666M24.75 6.79402L13.7233 1.08736C13.3673 0.903364 13.19 0.81003 13.002 0.774031C12.8355 0.74199 12.6645 0.74199 12.498 0.774031C12.3113 0.81003 12.1327 0.903364 11.7753 1.08736L0.75 6.79402M0.75 6.79402L12.75 12.666" stroke="#0F0F0F" stroke-width="1.5" stroke-linecap="round" stroke-linejoin="round"/>
</svg>
