<svg width="22" height="26" viewBox="0 0 22 26" fill="none" xmlns="http://www.w3.org/2000/svg">
<path d="M20.8634 1.64768C20.7578 1.45212 20.5981 1.28823 20.4018 1.17399C20.2055 1.05974 19.9803 0.999544 19.7507 1H8.49871C8.01113 1 7.56105 1.27586 7.36101 1.70765L1.10992 14.9011C0.934889 15.2729 0.972395 15.7046 1.19743 16.0525C1.42247 16.4003 1.82254 16.6042 2.24762 16.6042H8.49871V23.8006C8.49871 24.1187 8.63043 24.4238 8.86489 24.6487C9.09935 24.8736 9.41735 25 9.74893 25C10.1365 25 10.5241 24.8201 10.7616 24.5082L20.7634 11.3148C20.8981 11.1359 20.9787 10.9247 20.9963 10.7047C21.014 10.4846 20.968 10.2641 20.8634 10.0675C20.7606 9.86879 20.6019 9.70169 20.4053 9.5851C20.2086 9.46851 19.9819 9.40709 19.7507 9.4078H15.925L20.7634 2.90705C20.8981 2.72809 20.9787 2.51695 20.9963 2.29686C21.014 2.07678 20.968 1.85629 20.8634 1.65967V1.64768Z" stroke="#0F0F0F" stroke-width="2"/>
</svg>
