<svg width="26" height="26" viewBox="0 0 26 26" fill="none" xmlns="http://www.w3.org/2000/svg">
<path d="M17.6173 21.2114H24.75M21.1836 17.6728V24.75M12.0435 23.1612L1.84045 17.922C1.44392 17.7178 1.24566 17.6169 1.10135 17.4663C0.973537 17.334 0.876704 17.1755 0.817761 17.0018C0.75 16.8039 0.75 16.5823 0.75 16.1378V6.3939M12.0435 23.1612V11.8772M12.0435 23.1612L14.3228 22.3414M23.337 6.3939L12.0435 11.8772M23.337 6.3939L12.9595 1.06503C12.6245 0.893211 12.4576 0.806056 12.2806 0.77244C12.124 0.74252 11.963 0.74252 11.8063 0.77244C11.6306 0.806056 11.4625 0.893211 11.1262 1.06503L0.75 6.3939M23.337 6.3939V14.871M0.75 6.3939L12.0435 11.8772" stroke="#0F0F0F" stroke-width="1.5" stroke-linecap="round" stroke-linejoin="round"/>
</svg>
