<svg width="26" height="26" viewBox="0 0 26 26" fill="none" xmlns="http://www.w3.org/2000/svg">
<path d="M1 23.7368V21.2105C1 19.8705 1.53233 18.5853 2.47988 17.6378C3.42743 16.6902 4.71259 16.1579 6.05263 16.1579H11.1053C12.3179 16.1579 13.4295 16.5848 14.3011 17.296M17.4211 1.16421C18.5079 1.44249 19.4712 2.07457 20.1591 2.96081C20.847 3.84706 21.2204 4.93705 21.2204 6.05895C21.2204 7.18085 20.847 8.27084 20.1591 9.15708C19.4712 10.0433 18.5079 10.6754 17.4211 10.9537M17.4211 21.2105H25M21.2105 17.4211V25M3.52632 6.05263C3.52632 7.39267 4.05864 8.67783 5.0062 9.62538C5.95375 10.5729 7.23891 11.1053 8.57895 11.1053C9.91899 11.1053 11.2041 10.5729 12.1517 9.62538C13.0992 8.67783 13.6316 7.39267 13.6316 6.05263C13.6316 4.71259 13.0992 3.42743 12.1517 2.47988C11.2041 1.53233 9.91899 1 8.57895 1C7.23891 1 5.95375 1.53233 5.0062 2.47988C4.05864 3.42743 3.52632 4.71259 3.52632 6.05263Z" stroke="#0F0F0F" stroke-width="2" stroke-linecap="round" stroke-linejoin="round"/>
</svg>
