<svg width="40" height="40" viewBox="0 0 40 40" fill="none" xmlns="http://www.w3.org/2000/svg">
<rect width="40" height="40" rx="20" fill="#FF631C"/>
<path d="M21.8884 13.663L22.63 12.9214C23.2199 12.3314 24.0201 12 24.8543 12C25.6886 12 26.4887 12.3314 27.0787 12.9214C27.6686 13.5113 28 14.3115 28 15.1458C28 15.9801 27.6686 16.7803 27.0787 17.3703L26.3371 18.1119M21.8884 13.663C21.8884 13.663 21.9812 15.239 23.3716 16.6286C24.7619 18.0191 26.3371 18.1119 26.3371 18.1119M21.8884 13.663L15.0711 20.4791C14.6095 20.9415 14.3783 21.1727 14.1799 21.4271C13.9458 21.7275 13.7449 22.0523 13.5807 22.3959C13.4423 22.6871 13.3391 22.9975 13.1328 23.6167L12.2576 26.2416M26.3371 18.1119L19.5205 24.928C19.0589 25.3896 18.8278 25.6208 18.5734 25.8192C18.273 26.0533 17.9482 26.2542 17.6046 26.4184C17.3134 26.5568 17.0038 26.66 16.3838 26.8664L13.7591 27.7416M13.7591 27.7416L13.1176 27.956C12.968 28.0062 12.8074 28.0136 12.6539 27.9775C12.5003 27.9414 12.3599 27.8632 12.2484 27.7516C12.1368 27.6401 12.0586 27.4996 12.0225 27.3461C11.9864 27.1925 11.9938 27.0319 12.044 26.8824L12.2584 26.2408L13.7591 27.7416Z" stroke="white" stroke-width="1.5"/>
</svg>
